<svg xmlns="http://www.w3.org/2000/svg" viewBox="-20.487130703115444,-20.487130703115444,40.97426140623089,20.97426140623089">
	<circle cx="-20" cy="0" r="0.38970456249235585" fill="#a08" class="linke"></circle>
	<circle cx="-19.9766445366" cy="-0.9662675905" r="0.38970456249235585" fill="#a08" class="linke"></circle>
	<circle cx="-19.9066326944" cy="-1.9302784183" r="0.38970456249235585" fill="#a08" class="linke"></circle>
	<circle cx="-19.790127989" cy="-2.8897809914" r="0.38970456249235585" fill="#a08" class="linke"></circle>
	<circle cx="-19.6274025228" cy="-3.8425343471" r="0.38970456249235585" fill="#a08" class="linke"></circle>
	<circle cx="-19.4188363485" cy="-4.7863132858" r="0.38970456249235585" fill="#a08" class="linke"></circle>
	<circle cx="-19.1649165822" cy="-5.718913568" r="0.38970456249235585" fill="#e02" class="spd"></circle>
	<circle cx="-18.8662362652" cy="-6.6381570626" r="0.38970456249235585" fill="#e02" class="spd"></circle>
	<circle cx="-18.5234929792" cy="-7.5418968338" r="0.38970456249235585" fill="#e02" class="spd"></circle>
	<circle cx="-18.137487217" cy="-8.4280221555" r="0.38970456249235585" fill="#e02" class="spd"></circle>
	<circle cx="-17.7091205131" cy="-9.2944634409" r="0.38970456249235585" fill="#e02" class="spd"></circle>
	<circle cx="-17.2393933376" cy="-10.1391970763" r="0.38970456249235585" fill="#e02" class="spd"></circle>
	<circle cx="-16.7294027602" cy="-10.9602501471" r="0.38970456249235585" fill="#e02" class="spd"></circle>
	<circle cx="-16.1803398875" cy="-11.7557050458" r="0.38970456249235585" fill="#e02" class="spd"></circle>
	<circle cx="-15.5934870813" cy="-12.5237039508" r="0.38970456249235585" fill="#e02" class="spd"></circle>
	<circle cx="-14.9702149634" cy="-13.2624531648" r="0.38970456249235585" fill="#e02" class="spd"></circle>
	<circle cx="-14.3119792149" cy="-13.970227305" r="0.38970456249235585" fill="#e02" class="spd"></circle>
	<circle cx="-13.6203171757" cy="-14.645373332" r="0.38970456249235585" fill="#e02" class="spd"></circle>
	<circle cx="-12.8968442547" cy="-15.2863144109" r="0.38970456249235585" fill="#e02" class="spd"></circle>
	<circle cx="-12.1432501564" cy="-15.8915535943" r="0.38970456249235585" fill="#e02" class="spd"></circle>
	<circle cx="-11.3612949346" cy="-16.4596773179" r="0.38970456249235585" fill="#e02" class="spd"></circle>
	<circle cx="-10.5528048821" cy="-16.9893587024" r="0.38970456249235585" fill="#e02" class="spd"></circle>
	<circle cx="-9.7196682649" cy="-17.4793606525" r="0.38970456249235585" fill="#e02" class="spd"></circle>
	<circle cx="-8.863830912" cy="-17.9285387459" r="0.38970456249235585" fill="#e02" class="spd"></circle>
	<circle cx="-7.9872916713" cy="-18.3358439063" r="0.38970456249235585" fill="#e02" class="spd"></circle>
	<circle cx="-7.0920977409" cy="-18.7003248537" r="0.38970456249235585" fill="#e02" class="spd"></circle>
	<circle cx="-6.1803398875" cy="-19.0211303259" r="0.38970456249235585" fill="#e02" class="spd"></circle>
	<circle cx="-5.254147564" cy="-19.2975110669" r="0.38970456249235585" fill="#0b2" class="gruene"></circle>
	<circle cx="-4.3156839354" cy="-19.5288215766" r="0.38970456249235585" fill="#0b2" class="gruene"></circle>
	<circle cx="-3.3671408269" cy="-19.7145216186" r="0.38970456249235585" fill="#0b2" class="gruene"></circle>
	<circle cx="-2.4107336051" cy="-19.854177482" r="0.38970456249235585" fill="#0b2" class="gruene"></circle>
	<circle cx="-1.4486960032" cy="-19.9474629938" r="0.38970456249235585" fill="#0b2" class="gruene"></circle>
	<circle cx="-0.4832749047" cy="-19.9941602816" r="0.38970456249235585" fill="#0b2" class="gruene"></circle>
	<circle cx="0.4832749047" cy="-19.9941602816" r="0.38970456249235585" fill="#0b2" class="gruene"></circle>
	<circle cx="1.4486960032" cy="-19.9474629938" r="0.38970456249235585" fill="#333" class="union"></circle>
	<circle cx="2.4107336051" cy="-19.854177482" r="0.38970456249235585" fill="#333" class="union"></circle>
	<circle cx="3.3671408269" cy="-19.7145216186" r="0.38970456249235585" fill="#333" class="union"></circle>
	<circle cx="4.3156839354" cy="-19.5288215766" r="0.38970456249235585" fill="#333" class="union"></circle>
	<circle cx="5.254147564" cy="-19.2975110669" r="0.38970456249235585" fill="#333" class="union"></circle>
	<circle cx="6.1803398875" cy="-19.0211303259" r="0.38970456249235585" fill="#333" class="union"></circle>
	<circle cx="7.0920977409" cy="-18.7003248537" r="0.38970456249235585" fill="#333" class="union"></circle>
	<circle cx="7.9872916713" cy="-18.3358439063" r="0.38970456249235585" fill="#333" class="union"></circle>
	<circle cx="8.863830912" cy="-17.9285387459" r="0.38970456249235585" fill="#333" class="union"></circle>
	<circle cx="9.7196682649" cy="-17.4793606525" r="0.38970456249235585" fill="#333" class="union"></circle>
	<circle cx="10.5528048821" cy="-16.9893587024" r="0.38970456249235585" fill="#333" class="union"></circle>
	<circle cx="11.3612949346" cy="-16.4596773179" r="0.38970456249235585" fill="#333" class="union"></circle>
	<circle cx="12.1432501564" cy="-15.8915535943" r="0.38970456249235585" fill="#333" class="union"></circle>
	<circle cx="12.8968442547" cy="-15.2863144109" r="0.38970456249235585" fill="#333" class="union"></circle>
	<circle cx="13.6203171757" cy="-14.645373332" r="0.38970456249235585" fill="#333" class="union"></circle>
	<circle cx="14.3119792149" cy="-13.970227305" r="0.38970456249235585" fill="#333" class="union"></circle>
	<circle cx="14.9702149634" cy="-13.2624531648" r="0.38970456249235585" fill="#333" class="union"></circle>
	<circle cx="15.5934870813" cy="-12.5237039508" r="0.38970456249235585" fill="#333" class="union"></circle>
	<circle cx="16.1803398875" cy="-11.7557050458" r="0.38970456249235585" fill="#333" class="union"></circle>
	<circle cx="16.7294027602" cy="-10.9602501471" r="0.38970456249235585" fill="#333" class="union"></circle>
	<circle cx="17.2393933376" cy="-10.1391970763" r="0.38970456249235585" fill="#333" class="union"></circle>
	<circle cx="17.7091205131" cy="-9.2944634409" r="0.38970456249235585" fill="#333" class="union"></circle>
	<circle cx="18.137487217" cy="-8.4280221555" r="0.38970456249235585" fill="#333" class="union"></circle>
	<circle cx="18.5234929792" cy="-7.5418968338" r="0.38970456249235585" fill="#333" class="union"></circle>
	<circle cx="18.8662362652" cy="-6.6381570626" r="0.38970456249235585" fill="#333" class="union"></circle>
	<circle cx="19.1649165822" cy="-5.718913568" r="0.38970456249235585" fill="#333" class="union"></circle>
	<circle cx="19.4188363485" cy="-4.7863132858" r="0.38970456249235585" fill="#333" class="union"></circle>
	<circle cx="19.6274025228" cy="-3.8425343471" r="0.38970456249235585" fill="#333" class="union"></circle>
	<circle cx="19.790127989" cy="-2.8897809914" r="0.38970456249235585" fill="#333" class="union"></circle>
	<circle cx="19.9066326944" cy="-1.9302784183" r="0.38970456249235585" fill="#333" class="union"></circle>
	<circle cx="19.9766445366" cy="-0.9662675905" r="0.38970456249235585" fill="#333" class="union"></circle>
	<circle cx="20" cy="0" r="0.38970456249235585" fill="#333" class="union"></circle>
	<circle cx="-19.0257385938" cy="0" r="0.38970456249235585" fill="#a08" class="linke"></circle>
	<circle cx="-19.0013191947" cy="-0.9636378463" r="0.38970456249235585" fill="#a08" class="linke"></circle>
	<circle cx="-18.9281236818" cy="-1.9248020481" r="0.38970456249235585" fill="#a08" class="linke"></circle>
	<circle cx="-18.8063399469" cy="-2.8810253106" r="0.38970456249235585" fill="#a08" class="linke"></circle>
	<circle cx="-18.636280607" cy="-3.8298530225" r="0.38970456249235585" fill="#a08" class="linke"></circle>
	<circle cx="-18.4183822022" cy="-4.7688495566" r="0.38970456249235585" fill="#a08" class="linke"></circle>
	<circle cx="-18.1532040743" cy="-5.6956045223" r="0.38970456249235585" fill="#e02" class="spd"></circle>
	<circle cx="-17.841426932" cy="-6.6077389529" r="0.38970456249235585" fill="#e02" class="spd"></circle>
	<circle cx="-17.4838511026" cy="-7.5029114123" r="0.38970456249235585" fill="#e02" class="spd"></circle>
	<circle cx="-17.0813944782" cy="-8.3788240058" r="0.38970456249235585" fill="#e02" class="spd"></circle>
	<circle cx="-16.6350901591" cy="-9.2332282782" r="0.38970456249235585" fill="#e02" class="spd"></circle>
	<circle cx="-16.1460838022" cy="-10.063930986" r="0.38970456249235585" fill="#e02" class="spd"></circle>
	<circle cx="-15.6156306797" cy="-10.8687997273" r="0.38970456249235585" fill="#e02" class="spd"></circle>
	<circle cx="-15.0450924573" cy="-11.6457684156" r="0.38970456249235585" fill="#e02" class="spd"></circle>
	<circle cx="-14.4359336983" cy="-12.3928425834" r="0.38970456249235585" fill="#e02" class="spd"></circle>
	<circle cx="-13.7897181045" cy="-13.1081045021" r="0.38970456249235585" fill="#e02" class="spd"></circle>
	<circle cx="-13.1081045021" cy="-13.7897181045" r="0.38970456249235585" fill="#e02" class="spd"></circle>
	<circle cx="-12.3928425834" cy="-14.4359336983" r="0.38970456249235585" fill="#e02" class="spd"></circle>
	<circle cx="-11.6457684156" cy="-15.0450924573" r="0.38970456249235585" fill="#e02" class="spd"></circle>
	<circle cx="-10.8687997273" cy="-15.6156306797" r="0.38970456249235585" fill="#e02" class="spd"></circle>
	<circle cx="-10.063930986" cy="-16.1460838022" r="0.38970456249235585" fill="#e02" class="spd"></circle>
	<circle cx="-9.2332282782" cy="-16.6350901591" r="0.38970456249235585" fill="#e02" class="spd"></circle>
	<circle cx="-8.3788240058" cy="-17.0813944782" r="0.38970456249235585" fill="#e02" class="spd"></circle>
	<circle cx="-7.5029114123" cy="-17.4838511026" r="0.38970456249235585" fill="#e02" class="spd"></circle>
	<circle cx="-6.6077389529" cy="-17.841426932" r="0.38970456249235585" fill="#e02" class="spd"></circle>
	<circle cx="-5.6956045223" cy="-18.1532040743" r="0.38970456249235585" fill="#0b2" class="gruene"></circle>
	<circle cx="-4.7688495566" cy="-18.4183822022" r="0.38970456249235585" fill="#0b2" class="gruene"></circle>
	<circle cx="-3.8298530225" cy="-18.636280607" r="0.38970456249235585" fill="#0b2" class="gruene"></circle>
	<circle cx="-2.8810253106" cy="-18.8063399469" r="0.38970456249235585" fill="#0b2" class="gruene"></circle>
	<circle cx="-1.9248020481" cy="-18.9281236818" r="0.38970456249235585" fill="#0b2" class="gruene"></circle>
	<circle cx="-0.9636378463" cy="-19.0013191947" r="0.38970456249235585" fill="#0b2" class="gruene"></circle>
	<circle cx="0" cy="-19.0257385938" r="0.38970456249235585" fill="#0b2" class="gruene"></circle>
	<circle cx="0.9636378463" cy="-19.0013191947" r="0.38970456249235585" fill="#333" class="union"></circle>
	<circle cx="1.9248020481" cy="-18.9281236818" r="0.38970456249235585" fill="#333" class="union"></circle>
	<circle cx="2.8810253106" cy="-18.8063399469" r="0.38970456249235585" fill="#333" class="union"></circle>
	<circle cx="3.8298530225" cy="-18.636280607" r="0.38970456249235585" fill="#333" class="union"></circle>
	<circle cx="4.7688495566" cy="-18.4183822022" r="0.38970456249235585" fill="#333" class="union"></circle>
	<circle cx="5.6956045223" cy="-18.1532040743" r="0.38970456249235585" fill="#333" class="union"></circle>
	<circle cx="6.6077389529" cy="-17.841426932" r="0.38970456249235585" fill="#333" class="union"></circle>
	<circle cx="7.5029114123" cy="-17.4838511026" r="0.38970456249235585" fill="#333" class="union"></circle>
	<circle cx="8.3788240058" cy="-17.0813944782" r="0.38970456249235585" fill="#333" class="union"></circle>
	<circle cx="9.2332282782" cy="-16.6350901591" r="0.38970456249235585" fill="#333" class="union"></circle>
	<circle cx="10.063930986" cy="-16.1460838022" r="0.38970456249235585" fill="#333" class="union"></circle>
	<circle cx="10.8687997273" cy="-15.6156306797" r="0.38970456249235585" fill="#333" class="union"></circle>
	<circle cx="11.6457684156" cy="-15.0450924573" r="0.38970456249235585" fill="#333" class="union"></circle>
	<circle cx="12.3928425834" cy="-14.4359336983" r="0.38970456249235585" fill="#333" class="union"></circle>
	<circle cx="13.1081045021" cy="-13.7897181045" r="0.38970456249235585" fill="#333" class="union"></circle>
	<circle cx="13.7897181045" cy="-13.1081045021" r="0.38970456249235585" fill="#333" class="union"></circle>
	<circle cx="14.4359336983" cy="-12.3928425834" r="0.38970456249235585" fill="#333" class="union"></circle>
	<circle cx="15.0450924573" cy="-11.6457684156" r="0.38970456249235585" fill="#333" class="union"></circle>
	<circle cx="15.6156306797" cy="-10.8687997273" r="0.38970456249235585" fill="#333" class="union"></circle>
	<circle cx="16.1460838022" cy="-10.063930986" r="0.38970456249235585" fill="#333" class="union"></circle>
	<circle cx="16.6350901591" cy="-9.2332282782" r="0.38970456249235585" fill="#333" class="union"></circle>
	<circle cx="17.0813944782" cy="-8.3788240058" r="0.38970456249235585" fill="#333" class="union"></circle>
	<circle cx="17.4838511026" cy="-7.5029114123" r="0.38970456249235585" fill="#333" class="union"></circle>
	<circle cx="17.841426932" cy="-6.6077389529" r="0.38970456249235585" fill="#333" class="union"></circle>
	<circle cx="18.1532040743" cy="-5.6956045223" r="0.38970456249235585" fill="#333" class="union"></circle>
	<circle cx="18.4183822022" cy="-4.7688495566" r="0.38970456249235585" fill="#333" class="union"></circle>
	<circle cx="18.636280607" cy="-3.8298530225" r="0.38970456249235585" fill="#333" class="union"></circle>
	<circle cx="18.8063399469" cy="-2.8810253106" r="0.38970456249235585" fill="#333" class="union"></circle>
	<circle cx="18.9281236818" cy="-1.9248020481" r="0.38970456249235585" fill="#333" class="union"></circle>
	<circle cx="19.0013191947" cy="-0.9636378463" r="0.38970456249235585" fill="#333" class="union"></circle>
	<circle cx="19.0257385938" cy="0" r="0.38970456249235585" fill="#333" class="union"></circle>
	<circle cx="-18.0514771875" cy="0" r="0.38970456249235585" fill="#a08" class="linke"></circle>
	<circle cx="-18.0258927509" cy="-0.960738875" r="0.38970456249235585" fill="#a08" class="linke"></circle>
	<circle cx="-17.9492119628" cy="-1.9187544313" r="0.38970456249235585" fill="#a08" class="linke"></circle>
	<circle cx="-17.8216521832" cy="-2.8713310698" r="0.38970456249235585" fill="#a08" class="linke"></circle>
	<circle cx="-17.6435749943" cy="-3.8157686083" r="0.38970456249235585" fill="#a08" class="linke"></circle>
	<circle cx="-17.4154851752" cy="-4.7493899361" r="0.38970456249235585" fill="#a08" class="linke"></circle>
	<circle cx="-17.1380292712" cy="-5.6695486022" r="0.38970456249235585" fill="#e02" class="spd"></circle>
	<circle cx="-16.8119937612" cy="-6.5736363168" r="0.38970456249235585" fill="#e02" class="spd"></circle>
	<circle cx="-16.4383028284" cy="-7.459090345" r="0.38970456249235585" fill="#e02" class="spd"></circle>
	<circle cx="-16.0180157402" cy="-8.3234007713" r="0.38970456249235585" fill="#e02" class="spd"></circle>
	<circle cx="-15.5523238461" cy="-9.1641176137" r="0.38970456249235585" fill="#e02" class="spd"></circle>
	<circle cx="-15.0425472004" cy="-9.9788577691" r="0.38970456249235585" fill="#e02" class="spd"></circle>
	<circle cx="-14.4901308203" cy="-10.7653117681" r="0.38970456249235585" fill="#e02" class="spd"></circle>
	<circle cx="-13.8966405901" cy="-11.5212503211" r="0.38970456249235585" fill="#e02" class="spd"></circle>
	<circle cx="-13.2637588223" cy="-12.2445306385" r="0.38970456249235585" fill="#e02" class="spd"></circle>
	<circle cx="-12.5932794891" cy="-12.9331025034" r="0.38970456249235585" fill="#e02" class="spd"></circle>
	<circle cx="-11.8871031369" cy="-13.5850140841" r="0.38970456249235585" fill="#e02" class="spd"></circle>
	<circle cx="-11.1472314994" cy="-14.1984174664" r="0.38970456249235585" fill="#e02" class="spd"></circle>
	<circle cx="-10.3757618232" cy="-14.7715738918" r="0.38970456249235585" fill="#e02" class="spd"></circle>
	<circle cx="-9.5748809227" cy="-15.3028586861" r="0.38970456249235585" fill="#e02" class="spd"></circle>
	<circle cx="-8.746858982" cy="-15.7907658649" r="0.38970456249235585" fill="#e02" class="spd"></circle>
	<circle cx="-7.8940431192" cy="-16.2339124023" r="0.38970456249235585" fill="#e02" class="spd"></circle>
	<circle cx="-7.0188507335" cy="-16.6310421511" r="0.38970456249235585" fill="#e02" class="spd"></circle>
	<circle cx="-6.1237626529" cy="-16.9810294041" r="0.38970456249235585" fill="#e02" class="spd"></circle>
	<circle cx="-5.2113161016" cy="-17.2828820843" r="0.38970456249235585" fill="#0b2" class="gruene"></circle>
	<circle cx="-4.2840975087" cy="-17.5357445576" r="0.38970456249235585" fill="#0b2" class="gruene"></circle>
	<circle cx="-3.344735176" cy="-17.7389000576" r="0.38970456249235585" fill="#0b2" class="gruene"></circle>
	<circle cx="-2.395891828" cy="-17.8917727182" r="0.38970456249235585" fill="#0b2" class="gruene"></circle>
	<circle cx="-1.4402570643" cy="-17.9939292052" r="0.38970456249235585" fill="#0b2" class="gruene"></circle>
	<circle cx="-0.4805397355" cy="-18.0450799448" r="0.38970456249235585" fill="#0b2" class="gruene"></circle>
	<circle cx="0.4805397355" cy="-18.0450799448" r="0.38970456249235585" fill="#333" class="union"></circle>
	<circle cx="1.4402570643" cy="-17.9939292052" r="0.38970456249235585" fill="#333" class="union"></circle>
	<circle cx="2.395891828" cy="-17.8917727182" r="0.38970456249235585" fill="#333" class="union"></circle>
	<circle cx="3.344735176" cy="-17.7389000576" r="0.38970456249235585" fill="#333" class="union"></circle>
	<circle cx="4.2840975087" cy="-17.5357445576" r="0.38970456249235585" fill="#333" class="union"></circle>
	<circle cx="5.2113161016" cy="-17.2828820843" r="0.38970456249235585" fill="#333" class="union"></circle>
	<circle cx="6.1237626529" cy="-16.9810294041" r="0.38970456249235585" fill="#333" class="union"></circle>
	<circle cx="7.0188507335" cy="-16.6310421511" r="0.38970456249235585" fill="#333" class="union"></circle>
	<circle cx="7.8940431192" cy="-16.2339124023" r="0.38970456249235585" fill="#333" class="union"></circle>
	<circle cx="8.746858982" cy="-15.7907658649" r="0.38970456249235585" fill="#333" class="union"></circle>
	<circle cx="9.5748809227" cy="-15.3028586861" r="0.38970456249235585" fill="#333" class="union"></circle>
	<circle cx="10.3757618232" cy="-14.7715738918" r="0.38970456249235585" fill="#333" class="union"></circle>
	<circle cx="11.1472314994" cy="-14.1984174664" r="0.38970456249235585" fill="#333" class="union"></circle>
	<circle cx="11.8871031369" cy="-13.5850140841" r="0.38970456249235585" fill="#333" class="union"></circle>
	<circle cx="12.5932794891" cy="-12.9331025034" r="0.38970456249235585" fill="#333" class="union"></circle>
	<circle cx="13.2637588223" cy="-12.2445306385" r="0.38970456249235585" fill="#333" class="union"></circle>
	<circle cx="13.8966405901" cy="-11.5212503211" r="0.38970456249235585" fill="#333" class="union"></circle>
	<circle cx="14.4901308203" cy="-10.7653117681" r="0.38970456249235585" fill="#333" class="union"></circle>
	<circle cx="15.0425472004" cy="-9.9788577691" r="0.38970456249235585" fill="#333" class="union"></circle>
	<circle cx="15.5523238461" cy="-9.1641176137" r="0.38970456249235585" fill="#333" class="union"></circle>
	<circle cx="16.0180157402" cy="-8.3234007713" r="0.38970456249235585" fill="#333" class="union"></circle>
	<circle cx="16.4383028284" cy="-7.459090345" r="0.38970456249235585" fill="#333" class="union"></circle>
	<circle cx="16.8119937612" cy="-6.5736363168" r="0.38970456249235585" fill="#333" class="union"></circle>
	<circle cx="17.1380292712" cy="-5.6695486022" r="0.38970456249235585" fill="#333" class="union"></circle>
	<circle cx="17.4154851752" cy="-4.7493899361" r="0.38970456249235585" fill="#333" class="union"></circle>
	<circle cx="17.6435749943" cy="-3.8157686083" r="0.38970456249235585" fill="#333" class="union"></circle>
	<circle cx="17.8216521832" cy="-2.8713310698" r="0.38970456249235585" fill="#333" class="union"></circle>
	<circle cx="17.9492119628" cy="-1.9187544313" r="0.38970456249235585" fill="#333" class="union"></circle>
	<circle cx="18.0258927509" cy="-0.960738875" r="0.38970456249235585" fill="#333" class="union"></circle>
	<circle cx="18.0514771875" cy="0" r="0.38970456249235585" fill="#333" class="union"></circle>
	<circle cx="-17.0772157813" cy="0" r="0.38970456249235585" fill="#a08" class="linke"></circle>
	<circle cx="-17.0493646171" cy="-0.9749179418" r="0.38970456249235585" fill="#a08" class="linke"></circle>
	<circle cx="-16.9659019693" cy="-1.9466559039" r="0.38970456249235585" fill="#a08" class="linke"></circle>
	<circle cx="-16.8271000757" cy="-2.9120442791" r="0.38970456249235585" fill="#a08" class="linke"></circle>
	<circle cx="-16.6334116792" cy="-3.8679341711" r="0.38970456249235585" fill="#a08" class="linke"></circle>
	<circle cx="-16.3854685511" cy="-4.8112076658" r="0.38970456249235585" fill="#a08" class="linke"></circle>
	<circle cx="-16.0840794303" cy="-5.7387880011" r="0.38970456249235585" fill="#e02" class="spd"></circle>
	<circle cx="-15.7302273855" cy="-6.6476496028" r="0.38970456249235585" fill="#e02" class="spd"></circle>
	<circle cx="-15.3250666086" cy="-7.5348279532" r="0.38970456249235585" fill="#e02" class="spd"></circle>
	<circle cx="-14.8699186497" cy="-8.3974292609" r="0.38970456249235585" fill="#e02" class="spd"></circle>
	<circle cx="-14.3662681069" cy="-9.2326398999" r="0.38970456249235585" fill="#e02" class="spd"></circle>
	<circle cx="-13.8157577837" cy="-10.0377355865" r="0.38970456249235585" fill="#e02" class="spd"></circle>
	<circle cx="-13.2201833302" cy="-10.8100902659" r="0.38970456249235585" fill="#e02" class="spd"></circle>
	<circle cx="-12.5814873865" cy="-11.5471846779" r="0.38970456249235585" fill="#e02" class="spd"></circle>
	<circle cx="-11.901753246" cy="-12.2466145735" r="0.38970456249235585" fill="#e02" class="spd"></circle>
	<circle cx="-11.1831980603" cy="-12.9060985579" r="0.38970456249235585" fill="#e02" class="spd"></circle>
	<circle cx="-10.4281656069" cy="-13.5234855313" r="0.38970456249235585" fill="#e02" class="spd"></circle>
	<circle cx="-9.6391186449" cy="-14.0967617058" r="0.38970456249235585" fill="#e02" class="spd"></circle>
	<circle cx="-8.8186308813" cy="-14.6240571737" r="0.38970456249235585" fill="#e02" class="spd"></circle>
	<circle cx="-7.9693785768" cy="-15.1036520067" r="0.38970456249235585" fill="#e02" class="spd"></circle>
	<circle cx="-7.0941318158" cy="-15.5339818663" r="0.38970456249235585" fill="#e02" class="spd"></circle>
	<circle cx="-6.1957454714" cy="-15.9136431057" r="0.38970456249235585" fill="#e02" class="spd"></circle>
	<circle cx="-5.277149893" cy="-16.241397349" r="0.38970456249235585" fill="#e02" class="spd"></circle>
	<circle cx="-4.3413413486" cy="-16.51617553" r="0.38970456249235585" fill="#0b2" class="gruene"></circle>
	<circle cx="-3.391372251" cy="-16.7370813793" r="0.38970456249235585" fill="#0b2" class="gruene"></circle>
	<circle cx="-2.4303412021" cy="-16.903394348" r="0.38970456249235585" fill="#0b2" class="gruene"></circle>
	<circle cx="-1.4613828853" cy="-17.0145719577" r="0.38970456249235585" fill="#0b2" class="gruene"></circle>
	<circle cx="-0.4876578413" cy="-17.0702515702" r="0.38970456249235585" fill="#0b2" class="gruene"></circle>
	<circle cx="0.4876578413" cy="-17.0702515702" r="0.38970456249235585" fill="#333" class="union"></circle>
	<circle cx="1.4613828853" cy="-17.0145719577" r="0.38970456249235585" fill="#333" class="union"></circle>
	<circle cx="2.4303412021" cy="-16.903394348" r="0.38970456249235585" fill="#333" class="union"></circle>
	<circle cx="3.391372251" cy="-16.7370813793" r="0.38970456249235585" fill="#333" class="union"></circle>
	<circle cx="4.3413413486" cy="-16.51617553" r="0.38970456249235585" fill="#333" class="union"></circle>
	<circle cx="5.277149893" cy="-16.241397349" r="0.38970456249235585" fill="#333" class="union"></circle>
	<circle cx="6.1957454714" cy="-15.9136431057" r="0.38970456249235585" fill="#333" class="union"></circle>
	<circle cx="7.0941318158" cy="-15.5339818663" r="0.38970456249235585" fill="#333" class="union"></circle>
	<circle cx="7.9693785768" cy="-15.1036520067" r="0.38970456249235585" fill="#333" class="union"></circle>
	<circle cx="8.8186308813" cy="-14.6240571737" r="0.38970456249235585" fill="#333" class="union"></circle>
	<circle cx="9.6391186449" cy="-14.0967617058" r="0.38970456249235585" fill="#333" class="union"></circle>
	<circle cx="10.4281656069" cy="-13.5234855313" r="0.38970456249235585" fill="#333" class="union"></circle>
	<circle cx="11.1831980603" cy="-12.9060985579" r="0.38970456249235585" fill="#333" class="union"></circle>
	<circle cx="11.901753246" cy="-12.2466145735" r="0.38970456249235585" fill="#333" class="union"></circle>
	<circle cx="12.5814873865" cy="-11.5471846779" r="0.38970456249235585" fill="#333" class="union"></circle>
	<circle cx="13.2201833302" cy="-10.8100902659" r="0.38970456249235585" fill="#333" class="union"></circle>
	<circle cx="13.8157577837" cy="-10.0377355865" r="0.38970456249235585" fill="#333" class="union"></circle>
	<circle cx="14.3662681069" cy="-9.2326398999" r="0.38970456249235585" fill="#333" class="union"></circle>
	<circle cx="14.8699186497" cy="-8.3974292609" r="0.38970456249235585" fill="#333" class="union"></circle>
	<circle cx="15.3250666086" cy="-7.5348279532" r="0.38970456249235585" fill="#333" class="union"></circle>
	<circle cx="15.7302273855" cy="-6.6476496028" r="0.38970456249235585" fill="#333" class="union"></circle>
	<circle cx="16.0840794303" cy="-5.7387880011" r="0.38970456249235585" fill="#333" class="union"></circle>
	<circle cx="16.3854685511" cy="-4.8112076658" r="0.38970456249235585" fill="#333" class="union"></circle>
	<circle cx="16.6334116792" cy="-3.8679341711" r="0.38970456249235585" fill="#333" class="union"></circle>
	<circle cx="16.8271000757" cy="-2.9120442791" r="0.38970456249235585" fill="#333" class="union"></circle>
	<circle cx="16.9659019693" cy="-1.9466559039" r="0.38970456249235585" fill="#333" class="union"></circle>
	<circle cx="17.0493646171" cy="-0.9749179418" r="0.38970456249235585" fill="#333" class="union"></circle>
	<circle cx="17.0772157813" cy="0" r="0.38970456249235585" fill="#333" class="union"></circle>
	<circle cx="-16.1029543751" cy="0" r="0.38970456249235585" fill="#a08" class="linke"></circle>
	<circle cx="-16.073575408" cy="-0.9722721892" r="0.38970456249235585" fill="#a08" class="linke"></circle>
	<circle cx="-15.9855457073" cy="-1.9409966627" r="0.38970456249235585" fill="#a08" class="linke"></circle>
	<circle cx="-15.839186484" cy="-2.9026386498" r="0.38970456249235585" fill="#a08" class="linke"></circle>
	<circle cx="-15.6350317869" cy="-3.8536892233" r="0.38970456249235585" fill="#a08" class="linke"></circle>
	<circle cx="-15.3738265543" cy="-4.7906781027" r="0.38970456249235585" fill="#e02" class="spd"></circle>
	<circle cx="-15.0565238959" cy="-5.7101863172" r="0.38970456249235585" fill="#e02" class="spd"></circle>
	<circle cx="-14.6842816146" cy="-6.6088586812" r="0.38970456249235585" fill="#e02" class="spd"></circle>
	<circle cx="-14.2584579822" cy="-7.4834160365" r="0.38970456249235585" fill="#e02" class="spd"></circle>
	<circle cx="-13.7806067829" cy="-8.3306672182" r="0.38970456249235585" fill="#e02" class="spd"></circle>
	<circle cx="-13.2524716439" cy="-9.1475206987" r="0.38970456249235585" fill="#e02" class="spd"></circle>
	<circle cx="-12.6759796731" cy="-9.9309958682" r="0.38970456249235585" fill="#e02" class="spd"></circle>
	<circle cx="-12.0532344271" cy="-10.6782339107" r="0.38970456249235585" fill="#e02" class="spd"></circle>
	<circle cx="-11.3865082358" cy="-11.3865082358" r="0.38970456249235585" fill="#e02" class="spd"></circle>
	<circle cx="-10.6782339107" cy="-12.0532344271" r="0.38970456249235585" fill="#e02" class="spd"></circle>
	<circle cx="-9.9309958682" cy="-12.6759796731" r="0.38970456249235585" fill="#e02" class="spd"></circle>
	<circle cx="-9.1475206987" cy="-13.2524716439" r="0.38970456249235585" fill="#e02" class="spd"></circle>
	<circle cx="-8.3306672182" cy="-13.7806067829" r="0.38970456249235585" fill="#e02" class="spd"></circle>
	<circle cx="-7.4834160365" cy="-14.2584579822" r="0.38970456249235585" fill="#e02" class="spd"></circle>
	<circle cx="-6.6088586812" cy="-14.6842816146" r="0.38970456249235585" fill="#e02" class="spd"></circle>
	<circle cx="-5.7101863172" cy="-15.0565238959" r="0.38970456249235585" fill="#e02" class="spd"></circle>
	<circle cx="-4.7906781027" cy="-15.3738265543" r="0.38970456249235585" fill="#e02" class="spd"></circle>
	<circle cx="-3.8536892233" cy="-15.6350317869" r="0.38970456249235585" fill="#0b2" class="gruene"></circle>
	<circle cx="-2.9026386498" cy="-15.839186484" r="0.38970456249235585" fill="#0b2" class="gruene"></circle>
	<circle cx="-1.9409966627" cy="-15.9855457073" r="0.38970456249235585" fill="#0b2" class="gruene"></circle>
	<circle cx="-0.9722721892" cy="-16.073575408" r="0.38970456249235585" fill="#0b2" class="gruene"></circle>
	<circle cx="0" cy="-16.1029543751" r="0.38970456249235585" fill="#0b2" class="gruene"></circle>
	<circle cx="0.9722721892" cy="-16.073575408" r="0.38970456249235585" fill="#333" class="union"></circle>
	<circle cx="1.9409966627" cy="-15.9855457073" r="0.38970456249235585" fill="#333" class="union"></circle>
	<circle cx="2.9026386498" cy="-15.839186484" r="0.38970456249235585" fill="#333" class="union"></circle>
	<circle cx="3.8536892233" cy="-15.6350317869" r="0.38970456249235585" fill="#333" class="union"></circle>
	<circle cx="4.7906781027" cy="-15.3738265543" r="0.38970456249235585" fill="#333" class="union"></circle>
	<circle cx="5.7101863172" cy="-15.0565238959" r="0.38970456249235585" fill="#333" class="union"></circle>
	<circle cx="6.6088586812" cy="-14.6842816146" r="0.38970456249235585" fill="#333" class="union"></circle>
	<circle cx="7.4834160365" cy="-14.2584579822" r="0.38970456249235585" fill="#333" class="union"></circle>
	<circle cx="8.3306672182" cy="-13.7806067829" r="0.38970456249235585" fill="#333" class="union"></circle>
	<circle cx="9.1475206987" cy="-13.2524716439" r="0.38970456249235585" fill="#333" class="union"></circle>
	<circle cx="9.9309958682" cy="-12.6759796731" r="0.38970456249235585" fill="#333" class="union"></circle>
	<circle cx="10.6782339107" cy="-12.0532344271" r="0.38970456249235585" fill="#333" class="union"></circle>
	<circle cx="11.3865082358" cy="-11.3865082358" r="0.38970456249235585" fill="#333" class="union"></circle>
	<circle cx="12.0532344271" cy="-10.6782339107" r="0.38970456249235585" fill="#333" class="union"></circle>
	<circle cx="12.6759796731" cy="-9.9309958682" r="0.38970456249235585" fill="#333" class="union"></circle>
	<circle cx="13.2524716439" cy="-9.1475206987" r="0.38970456249235585" fill="#333" class="union"></circle>
	<circle cx="13.7806067829" cy="-8.3306672182" r="0.38970456249235585" fill="#333" class="union"></circle>
	<circle cx="14.2584579822" cy="-7.4834160365" r="0.38970456249235585" fill="#333" class="union"></circle>
	<circle cx="14.6842816146" cy="-6.6088586812" r="0.38970456249235585" fill="#333" class="union"></circle>
	<circle cx="15.0565238959" cy="-5.7101863172" r="0.38970456249235585" fill="#333" class="union"></circle>
	<circle cx="15.3738265543" cy="-4.7906781027" r="0.38970456249235585" fill="#333" class="union"></circle>
	<circle cx="15.6350317869" cy="-3.8536892233" r="0.38970456249235585" fill="#333" class="union"></circle>
	<circle cx="15.839186484" cy="-2.9026386498" r="0.38970456249235585" fill="#333" class="union"></circle>
	<circle cx="15.9855457073" cy="-1.9409966627" r="0.38970456249235585" fill="#333" class="union"></circle>
	<circle cx="16.073575408" cy="-0.9722721892" r="0.38970456249235585" fill="#333" class="union"></circle>
	<circle cx="16.1029543751" cy="0" r="0.38970456249235585" fill="#333" class="union"></circle>
	<circle cx="-15.1286929688" cy="0" r="0.38970456249235585" fill="#a08" class="linke"></circle>
	<circle cx="-15.0976094466" cy="-0.9692986865" r="0.38970456249235585" fill="#a08" class="linke"></circle>
	<circle cx="-15.0044866087" cy="-1.9346143169" r="0.38970456249235585" fill="#a08" class="linke"></circle>
	<circle cx="-14.8497071169" cy="-2.891980202" r="0.38970456249235585" fill="#a08" class="linke"></circle>
	<circle cx="-14.6339069933" cy="-3.8374623201" r="0.38970456249235585" fill="#a08" class="linke"></circle>
	<circle cx="-14.3579730068" cy="-4.7671754824" r="0.38970456249235585" fill="#e02" class="spd"></circle>
	<circle cx="-14.0230390296" cy="-5.6772992982" r="0.38970456249235585" fill="#e02" class="spd"></circle>
	<circle cx="-13.630481377" cy="-6.5640938733" r="0.38970456249235585" fill="#e02" class="spd"></circle>
	<circle cx="-13.1819131527" cy="-7.4239151787" r="0.38970456249235585" fill="#e02" class="spd"></circle>
	<circle cx="-12.6791776198" cy="-8.2532300242" r="0.38970456249235585" fill="#e02" class="spd"></circle>
	<circle cx="-12.1243406263" cy="-9.0486305772" r="0.38970456249235585" fill="#e02" class="spd"></circle>
	<circle cx="-11.5196821165" cy="-9.8068483663" r="0.38970456249235585" fill="#e02" class="spd"></circle>
	<circle cx="-10.867686762" cy="-10.5247677119" r="0.38970456249235585" fill="#e02" class="spd"></circle>
	<circle cx="-10.1710337514" cy="-11.1994385293" r="0.38970456249235585" fill="#e02" class="spd"></circle>
	<circle cx="-9.4325857815" cy="-11.8280884516" r="0.38970456249235585" fill="#e02" class="spd"></circle>
	<circle cx="-8.6553772933" cy="-12.4081342214" r="0.38970456249235585" fill="#e02" class="spd"></circle>
	<circle cx="-7.8426020033" cy="-12.937192306" r="0.38970456249235585" fill="#e02" class="spd"></circle>
	<circle cx="-6.9975997794" cy="-13.4130886925" r="0.38970456249235585" fill="#e02" class="spd"></circle>
	<circle cx="-6.123842917" cy="-13.8338678204" r="0.38970456249235585" fill="#e02" class="spd"></circle>
	<circle cx="-5.2249218705" cy="-14.1978006181" r="0.38970456249235585" fill="#e02" class="spd"></circle>
	<circle cx="-4.3045304993" cy="-14.5033916077" r="0.38970456249235585" fill="#0b2" class="gruene"></circle>
	<circle cx="-3.366450889" cy="-14.7493850502" r="0.38970456249235585" fill="#0b2" class="gruene"></circle>
	<circle cx="-2.4145378098" cy="-14.9347701057" r="0.38970456249235585" fill="#0b2" class="gruene"></circle>
	<circle cx="-1.4527028769" cy="-15.0587849874" r="0.38970456249235585" fill="#0b2" class="gruene"></circle>
	<circle cx="-0.4848984762" cy="-15.1209200915" r="0.38970456249235585" fill="#0b2" class="gruene"></circle>
	<circle cx="0.4848984762" cy="-15.1209200915" r="0.38970456249235585" fill="#333" class="union"></circle>
	<circle cx="1.4527028769" cy="-15.0587849874" r="0.38970456249235585" fill="#333" class="union"></circle>
	<circle cx="2.4145378098" cy="-14.9347701057" r="0.38970456249235585" fill="#333" class="union"></circle>
	<circle cx="3.366450889" cy="-14.7493850502" r="0.38970456249235585" fill="#333" class="union"></circle>
	<circle cx="4.3045304993" cy="-14.5033916077" r="0.38970456249235585" fill="#333" class="union"></circle>
	<circle cx="5.2249218705" cy="-14.1978006181" r="0.38970456249235585" fill="#333" class="union"></circle>
	<circle cx="6.123842917" cy="-13.8338678204" r="0.38970456249235585" fill="#333" class="union"></circle>
	<circle cx="6.9975997794" cy="-13.4130886925" r="0.38970456249235585" fill="#333" class="union"></circle>
	<circle cx="7.8426020033" cy="-12.937192306" r="0.38970456249235585" fill="#333" class="union"></circle>
	<circle cx="8.6553772933" cy="-12.4081342214" r="0.38970456249235585" fill="#333" class="union"></circle>
	<circle cx="9.4325857815" cy="-11.8280884516" r="0.38970456249235585" fill="#333" class="union"></circle>
	<circle cx="10.1710337514" cy="-11.1994385293" r="0.38970456249235585" fill="#333" class="union"></circle>
	<circle cx="10.867686762" cy="-10.5247677119" r="0.38970456249235585" fill="#333" class="union"></circle>
	<circle cx="11.5196821165" cy="-9.8068483663" r="0.38970456249235585" fill="#333" class="union"></circle>
	<circle cx="12.1243406263" cy="-9.0486305772" r="0.38970456249235585" fill="#333" class="union"></circle>
	<circle cx="12.6791776198" cy="-8.2532300242" r="0.38970456249235585" fill="#333" class="union"></circle>
	<circle cx="13.1819131527" cy="-7.4239151787" r="0.38970456249235585" fill="#333" class="union"></circle>
	<circle cx="13.630481377" cy="-6.5640938733" r="0.38970456249235585" fill="#333" class="union"></circle>
	<circle cx="14.0230390296" cy="-5.6772992982" r="0.38970456249235585" fill="#333" class="union"></circle>
	<circle cx="14.3579730068" cy="-4.7671754824" r="0.38970456249235585" fill="#333" class="union"></circle>
	<circle cx="14.6339069933" cy="-3.8374623201" r="0.38970456249235585" fill="#333" class="union"></circle>
	<circle cx="14.8497071169" cy="-2.891980202" r="0.38970456249235585" fill="#333" class="union"></circle>
	<circle cx="15.0044866087" cy="-1.9346143169" r="0.38970456249235585" fill="#333" class="union"></circle>
	<circle cx="15.0976094466" cy="-0.9692986865" r="0.38970456249235585" fill="#333" class="union"></circle>
	<circle cx="15.1286929688" cy="0" r="0.38970456249235585" fill="#333" class="union"></circle>
	<circle cx="-14.1544315626" cy="0" r="0.38970456249235585" fill="#a08" class="linke"></circle>
	<circle cx="-14.1214343157" cy="-0.9659325696" r="0.38970456249235585" fill="#a08" class="linke"></circle>
	<circle cx="-14.0225964232" cy="-1.9273615157" r="0.38970456249235585" fill="#a08" class="linke"></circle>
	<circle cx="-13.8583787131" cy="-2.8798042128" r="0.38970456249235585" fill="#a08" class="linke"></circle>
	<circle cx="-13.6295468442" cy="-3.8188199332" r="0.38970456249235585" fill="#a08" class="linke"></circle>
	<circle cx="-13.3371677363" cy="-4.7400305522" r="0.38970456249235585" fill="#e02" class="spd"></circle>
	<circle cx="-12.9826045956" cy="-5.6391409607" r="0.38970456249235585" fill="#e02" class="spd"></circle>
	<circle cx="-12.5675105593" cy="-6.5119590909" r="0.38970456249235585" fill="#e02" class="spd"></circle>
	<circle cx="-12.0938209874" cy="-7.3544154618" r="0.38970456249235585" fill="#e02" class="spd"></circle>
	<circle cx="-11.5637444393" cy="-8.1625821529" r="0.38970456249235585" fill="#e02" class="spd"></circle>
	<circle cx="-10.9797523766" cy="-8.932691118" r="0.38970456249235585" fill="#e02" class="spd"></circle>
	<circle cx="-10.3445676399" cy="-9.6611517535" r="0.38970456249235585" fill="#e02" class="spd"></circle>
	<circle cx="-9.6611517535" cy="-10.3445676399" r="0.38970456249235585" fill="#e02" class="spd"></circle>
	<circle cx="-8.932691118" cy="-10.9797523766" r="0.38970456249235585" fill="#e02" class="spd"></circle>
	<circle cx="-8.1625821529" cy="-11.5637444393" r="0.38970456249235585" fill="#e02" class="spd"></circle>
	<circle cx="-7.3544154618" cy="-12.0938209874" r="0.38970456249235585" fill="#e02" class="spd"></circle>
	<circle cx="-6.5119590909" cy="-12.5675105593" r="0.38970456249235585" fill="#e02" class="spd"></circle>
	<circle cx="-5.6391409607" cy="-12.9826045956" r="0.38970456249235585" fill="#e02" class="spd"></circle>
	<circle cx="-4.7400305522" cy="-13.3371677363" r="0.38970456249235585" fill="#e02" class="spd"></circle>
	<circle cx="-3.8188199332" cy="-13.6295468442" r="0.38970456249235585" fill="#0b2" class="gruene"></circle>
	<circle cx="-2.8798042128" cy="-13.8583787131" r="0.38970456249235585" fill="#0b2" class="gruene"></circle>
	<circle cx="-1.9273615157" cy="-14.0225964232" r="0.38970456249235585" fill="#0b2" class="gruene"></circle>
	<circle cx="-0.9659325696" cy="-14.1214343157" r="0.38970456249235585" fill="#0b2" class="gruene"></circle>
	<circle cx="0" cy="-14.1544315626" r="0.38970456249235585" fill="#0b2" class="gruene"></circle>
	<circle cx="0.9659325696" cy="-14.1214343157" r="0.38970456249235585" fill="#333" class="union"></circle>
	<circle cx="1.9273615157" cy="-14.0225964232" r="0.38970456249235585" fill="#333" class="union"></circle>
	<circle cx="2.8798042128" cy="-13.8583787131" r="0.38970456249235585" fill="#333" class="union"></circle>
	<circle cx="3.8188199332" cy="-13.6295468442" r="0.38970456249235585" fill="#333" class="union"></circle>
	<circle cx="4.7400305522" cy="-13.3371677363" r="0.38970456249235585" fill="#333" class="union"></circle>
	<circle cx="5.6391409607" cy="-12.9826045956" r="0.38970456249235585" fill="#333" class="union"></circle>
	<circle cx="6.5119590909" cy="-12.5675105593" r="0.38970456249235585" fill="#333" class="union"></circle>
	<circle cx="7.3544154618" cy="-12.0938209874" r="0.38970456249235585" fill="#333" class="union"></circle>
	<circle cx="8.1625821529" cy="-11.5637444393" r="0.38970456249235585" fill="#333" class="union"></circle>
	<circle cx="8.932691118" cy="-10.9797523766" r="0.38970456249235585" fill="#333" class="union"></circle>
	<circle cx="9.6611517535" cy="-10.3445676399" r="0.38970456249235585" fill="#333" class="union"></circle>
	<circle cx="10.3445676399" cy="-9.6611517535" r="0.38970456249235585" fill="#333" class="union"></circle>
	<circle cx="10.9797523766" cy="-8.932691118" r="0.38970456249235585" fill="#333" class="union"></circle>
	<circle cx="11.5637444393" cy="-8.1625821529" r="0.38970456249235585" fill="#333" class="union"></circle>
	<circle cx="12.0938209874" cy="-7.3544154618" r="0.38970456249235585" fill="#333" class="union"></circle>
	<circle cx="12.5675105593" cy="-6.5119590909" r="0.38970456249235585" fill="#333" class="union"></circle>
	<circle cx="12.9826045956" cy="-5.6391409607" r="0.38970456249235585" fill="#333" class="union"></circle>
	<circle cx="13.3371677363" cy="-4.7400305522" r="0.38970456249235585" fill="#333" class="union"></circle>
	<circle cx="13.6295468442" cy="-3.8188199332" r="0.38970456249235585" fill="#333" class="union"></circle>
	<circle cx="13.8583787131" cy="-2.8798042128" r="0.38970456249235585" fill="#333" class="union"></circle>
	<circle cx="14.0225964232" cy="-1.9273615157" r="0.38970456249235585" fill="#333" class="union"></circle>
	<circle cx="14.1214343157" cy="-0.9659325696" r="0.38970456249235585" fill="#333" class="union"></circle>
	<circle cx="14.1544315626" cy="0" r="0.38970456249235585" fill="#333" class="union"></circle>
	<circle cx="-13.1801701564" cy="0" r="0.38970456249235585" fill="#a08" class="linke"></circle>
	<circle cx="-13.1433157274" cy="-0.9849553493" r="0.38970456249235585" fill="#a08" class="linke"></circle>
	<circle cx="-13.0329585455" cy="-1.9644024287" r="0.38970456249235585" fill="#a08" class="linke"></circle>
	<circle cx="-12.8497157728" cy="-2.9328637729" r="0.38970456249235585" fill="#a08" class="linke"></circle>
	<circle cx="-12.5946121771" cy="-3.8849233532" r="0.38970456249235585" fill="#e02" class="spd"></circle>
	<circle cx="-12.2690744012" cy="-4.8152568663" r="0.38970456249235585" fill="#e02" class="spd"></circle>
	<circle cx="-11.8749229846" cy="-5.7186615097" r="0.38970456249235585" fill="#e02" class="spd"></circle>
	<circle cx="-11.4143621816" cy="-6.5900850782" r="0.38970456249235585" fill="#e02" class="spd"></circle>
	<circle cx="-10.8899676353" cy="-7.4246542178" r="0.38970456249235585" fill="#e02" class="spd"></circle>
	<circle cx="-10.3046719725" cy="-8.2177016793" r="0.38970456249235585" fill="#e02" class="spd"></circle>
	<circle cx="-9.6617484042" cy="-8.9647924196" r="0.38970456249235585" fill="#e02" class="spd"></circle>
	<circle cx="-8.9647924196" cy="-9.6617484042" r="0.38970456249235585" fill="#e02" class="spd"></circle>
	<circle cx="-8.2177016793" cy="-10.3046719725" r="0.38970456249235585" fill="#e02" class="spd"></circle>
	<circle cx="-7.4246542178" cy="-10.8899676353" r="0.38970456249235585" fill="#e02" class="spd"></circle>
	<circle cx="-6.5900850782" cy="-11.4143621816" r="0.38970456249235585" fill="#e02" class="spd"></circle>
	<circle cx="-5.7186615097" cy="-11.8749229846" r="0.38970456249235585" fill="#e02" class="spd"></circle>
	<circle cx="-4.8152568663" cy="-12.2690744012" r="0.38970456249235585" fill="#e02" class="spd"></circle>
	<circle cx="-3.8849233532" cy="-12.5946121771" r="0.38970456249235585" fill="#e02" class="spd"></circle>
	<circle cx="-2.9328637729" cy="-12.8497157728" r="0.38970456249235585" fill="#0b2" class="gruene"></circle>
	<circle cx="-1.9644024287" cy="-13.0329585455" r="0.38970456249235585" fill="#0b2" class="gruene"></circle>
	<circle cx="-0.9849553493" cy="-13.1433157274" r="0.38970456249235585" fill="#0b2" class="gruene"></circle>
	<circle cx="0" cy="-13.1801701564" r="0.38970456249235585" fill="#0b2" class="gruene"></circle>
	<circle cx="0.9849553493" cy="-13.1433157274" r="0.38970456249235585" fill="#333" class="union"></circle>
	<circle cx="1.9644024287" cy="-13.0329585455" r="0.38970456249235585" fill="#333" class="union"></circle>
	<circle cx="2.9328637729" cy="-12.8497157728" r="0.38970456249235585" fill="#333" class="union"></circle>
	<circle cx="3.8849233532" cy="-12.5946121771" r="0.38970456249235585" fill="#333" class="union"></circle>
	<circle cx="4.8152568663" cy="-12.2690744012" r="0.38970456249235585" fill="#333" class="union"></circle>
	<circle cx="5.7186615097" cy="-11.8749229846" r="0.38970456249235585" fill="#333" class="union"></circle>
	<circle cx="6.5900850782" cy="-11.4143621816" r="0.38970456249235585" fill="#333" class="union"></circle>
	<circle cx="7.4246542178" cy="-10.8899676353" r="0.38970456249235585" fill="#333" class="union"></circle>
	<circle cx="8.2177016793" cy="-10.3046719725" r="0.38970456249235585" fill="#333" class="union"></circle>
	<circle cx="8.9647924196" cy="-9.6617484042" r="0.38970456249235585" fill="#333" class="union"></circle>
	<circle cx="9.6617484042" cy="-8.9647924196" r="0.38970456249235585" fill="#333" class="union"></circle>
	<circle cx="10.3046719725" cy="-8.2177016793" r="0.38970456249235585" fill="#333" class="union"></circle>
	<circle cx="10.8899676353" cy="-7.4246542178" r="0.38970456249235585" fill="#333" class="union"></circle>
	<circle cx="11.4143621816" cy="-6.5900850782" r="0.38970456249235585" fill="#333" class="union"></circle>
	<circle cx="11.8749229846" cy="-5.7186615097" r="0.38970456249235585" fill="#333" class="union"></circle>
	<circle cx="12.2690744012" cy="-4.8152568663" r="0.38970456249235585" fill="#333" class="union"></circle>
	<circle cx="12.5946121771" cy="-3.8849233532" r="0.38970456249235585" fill="#333" class="union"></circle>
	<circle cx="12.8497157728" cy="-2.9328637729" r="0.38970456249235585" fill="#333" class="union"></circle>
	<circle cx="13.0329585455" cy="-1.9644024287" r="0.38970456249235585" fill="#333" class="union"></circle>
	<circle cx="13.1433157274" cy="-0.9849553493" r="0.38970456249235585" fill="#333" class="union"></circle>
	<circle cx="13.1801701564" cy="0" r="0.38970456249235585" fill="#333" class="union"></circle>
	<circle cx="-12.2059087502" cy="0" r="0.38970456249235585" fill="#a08" class="linke"></circle>
	<circle cx="-12.1663287491" cy="-0.9821675952" r="0.38970456249235585" fill="#a08" class="linke"></circle>
	<circle cx="-12.0478454376" cy="-1.9579654566" r="0.38970456249235585" fill="#a08" class="linke"></circle>
	<circle cx="-11.8512272252" cy="-2.9210651608" r="0.38970456249235585" fill="#a08" class="linke"></circle>
	<circle cx="-11.5777492566" cy="-3.8652206364" r="0.38970456249235585" fill="#e02" class="spd"></circle>
	<circle cx="-11.2291851413" cy="-4.7843086731" r="0.38970456249235585" fill="#e02" class="spd"></circle>
	<circle cx="-10.8077954514" cy="-5.672368632" r="0.38970456249235585" fill="#e02" class="spd"></circle>
	<circle cx="-10.3163130607" cy="-6.5236411038" r="0.38970456249235585" fill="#e02" class="spd"></circle>
	<circle cx="-9.7579254211" cy="-7.3326052596" r="0.38970456249235585" fill="#e02" class="spd"></circle>
	<circle cx="-9.1362538907" cy="-8.0940146566" r="0.38970456249235585" fill="#e02" class="spd"></circle>
	<circle cx="-8.4553302479" cy="-8.8029312627" r="0.38970456249235585" fill="#e02" class="spd"></circle>
	<circle cx="-7.719570544" cy="-9.4547574815" r="0.38970456249235585" fill="#e02" class="spd"></circle>
	<circle cx="-6.9337464628" cy="-10.0452659699" r="0.38970456249235585" fill="#e02" class="spd"></circle>
	<circle cx="-6.1029543751" cy="-10.5706270539" r="0.38970456249235585" fill="#e02" class="spd"></circle>
	<circle cx="-5.2325822864" cy="-11.0274335651" r="0.38970456249235585" fill="#e02" class="spd"></circle>
	<circle cx="-4.3282748936" cy="-11.4127229381" r="0.38970456249235585" fill="#e02" class="spd"></circle>
	<circle cx="-3.3958969773" cy="-11.7239964234" r="0.38970456249235585" fill="#0b2" class="gruene"></circle>
	<circle cx="-2.4414953659" cy="-11.9592352931" r="0.38970456249235585" fill="#0b2" class="gruene"></circle>
	<circle cx="-1.4712597202" cy="-12.1169139327" r="0.38970456249235585" fill="#0b2" class="gruene"></circle>
	<circle cx="-0.4914823907" cy="-12.1960097358" r="0.38970456249235585" fill="#0b2" class="gruene"></circle>
	<circle cx="0.4914823907" cy="-12.1960097358" r="0.38970456249235585" fill="#333" class="union"></circle>
	<circle cx="1.4712597202" cy="-12.1169139327" r="0.38970456249235585" fill="#333" class="union"></circle>
	<circle cx="2.4414953659" cy="-11.9592352931" r="0.38970456249235585" fill="#333" class="union"></circle>
	<circle cx="3.3958969773" cy="-11.7239964234" r="0.38970456249235585" fill="#333" class="union"></circle>
	<circle cx="4.3282748936" cy="-11.4127229381" r="0.38970456249235585" fill="#333" class="union"></circle>
	<circle cx="5.2325822864" cy="-11.0274335651" r="0.38970456249235585" fill="#333" class="union"></circle>
	<circle cx="6.1029543751" cy="-10.5706270539" r="0.38970456249235585" fill="#333" class="union"></circle>
	<circle cx="6.9337464628" cy="-10.0452659699" r="0.38970456249235585" fill="#333" class="union"></circle>
	<circle cx="7.719570544" cy="-9.4547574815" r="0.38970456249235585" fill="#333" class="union"></circle>
	<circle cx="8.4553302479" cy="-8.8029312627" r="0.38970456249235585" fill="#333" class="union"></circle>
	<circle cx="9.1362538907" cy="-8.0940146566" r="0.38970456249235585" fill="#333" class="union"></circle>
	<circle cx="9.7579254211" cy="-7.3326052596" r="0.38970456249235585" fill="#333" class="union"></circle>
	<circle cx="10.3163130607" cy="-6.5236411038" r="0.38970456249235585" fill="#333" class="union"></circle>
	<circle cx="10.8077954514" cy="-5.672368632" r="0.38970456249235585" fill="#333" class="union"></circle>
	<circle cx="11.2291851413" cy="-4.7843086731" r="0.38970456249235585" fill="#333" class="union"></circle>
	<circle cx="11.5777492566" cy="-3.8652206364" r="0.38970456249235585" fill="#333" class="union"></circle>
	<circle cx="11.8512272252" cy="-2.9210651608" r="0.38970456249235585" fill="#333" class="union"></circle>
	<circle cx="12.0478454376" cy="-1.9579654566" r="0.38970456249235585" fill="#333" class="union"></circle>
	<circle cx="12.1663287491" cy="-0.9821675952" r="0.38970456249235585" fill="#333" class="union"></circle>
	<circle cx="12.2059087502" cy="0" r="0.38970456249235585" fill="#333" class="union"></circle>
	<circle cx="-11.2316473439" cy="0" r="0.38970456249235585" fill="#a08" class="linke"></circle>
	<circle cx="-11.1889075349" cy="-0.9789025665" r="0.38970456249235585" fill="#a08" class="linke"></circle>
	<circle cx="-11.0610133834" cy="-1.9503550935" r="0.38970456249235585" fill="#a08" class="linke"></circle>
	<circle cx="-10.8489382413" cy="-2.9069642405" r="0.38970456249235585" fill="#a08" class="linke"></circle>
	<circle cx="-10.5542961284" cy="-3.8414496344" r="0.38970456249235585" fill="#e02" class="spd"></circle>
	<circle cx="-10.179329449" cy="-4.746699277" r="0.38970456249235585" fill="#e02" class="spd"></circle>
	<circle cx="-9.7268919262" cy="-5.615823672" r="0.38970456249235585" fill="#e02" class="spd"></circle>
	<circle cx="-9.2004268825" cy="-6.4422082579" r="0.38970456249235585" fill="#e02" class="spd"></circle>
	<circle cx="-8.6039410349" cy="-7.219563749" r="0.38970456249235585" fill="#e02" class="spd"></circle>
	<circle cx="-7.9419740008" cy="-7.9419740008" r="0.38970456249235585" fill="#e02" class="spd"></circle>
	<circle cx="-7.219563749" cy="-8.6039410349" r="0.38970456249235585" fill="#e02" class="spd"></circle>
	<circle cx="-6.4422082579" cy="-9.2004268825" r="0.38970456249235585" fill="#e02" class="spd"></circle>
	<circle cx="-5.615823672" cy="-9.7268919262" r="0.38970456249235585" fill="#e02" class="spd"></circle>
	<circle cx="-4.746699277" cy="-10.179329449" r="0.38970456249235585" fill="#e02" class="spd"></circle>
	<circle cx="-3.8414496344" cy="-10.5542961284" r="0.38970456249235585" fill="#e02" class="spd"></circle>
	<circle cx="-2.9069642405" cy="-10.8489382413" r="0.38970456249235585" fill="#0b2" class="gruene"></circle>
	<circle cx="-1.9503550935" cy="-11.0610133834" r="0.38970456249235585" fill="#0b2" class="gruene"></circle>
	<circle cx="-0.9789025665" cy="-11.1889075349" r="0.38970456249235585" fill="#0b2" class="gruene"></circle>
	<circle cx="0" cy="-11.2316473439" r="0.38970456249235585" fill="#0b2" class="gruene"></circle>
	<circle cx="0.9789025665" cy="-11.1889075349" r="0.38970456249235585" fill="#333" class="union"></circle>
	<circle cx="1.9503550935" cy="-11.0610133834" r="0.38970456249235585" fill="#333" class="union"></circle>
	<circle cx="2.9069642405" cy="-10.8489382413" r="0.38970456249235585" fill="#333" class="union"></circle>
	<circle cx="3.8414496344" cy="-10.5542961284" r="0.38970456249235585" fill="#333" class="union"></circle>
	<circle cx="4.746699277" cy="-10.179329449" r="0.38970456249235585" fill="#333" class="union"></circle>
	<circle cx="5.615823672" cy="-9.7268919262" r="0.38970456249235585" fill="#333" class="union"></circle>
	<circle cx="6.4422082579" cy="-9.2004268825" r="0.38970456249235585" fill="#333" class="union"></circle>
	<circle cx="7.219563749" cy="-8.6039410349" r="0.38970456249235585" fill="#333" class="union"></circle>
	<circle cx="7.9419740008" cy="-7.9419740008" r="0.38970456249235585" fill="#333" class="union"></circle>
	<circle cx="8.6039410349" cy="-7.219563749" r="0.38970456249235585" fill="#333" class="union"></circle>
	<circle cx="9.2004268825" cy="-6.4422082579" r="0.38970456249235585" fill="#333" class="union"></circle>
	<circle cx="9.7268919262" cy="-5.615823672" r="0.38970456249235585" fill="#333" class="union"></circle>
	<circle cx="10.179329449" cy="-4.746699277" r="0.38970456249235585" fill="#333" class="union"></circle>
	<circle cx="10.5542961284" cy="-3.8414496344" r="0.38970456249235585" fill="#333" class="union"></circle>
	<circle cx="10.8489382413" cy="-2.9069642405" r="0.38970456249235585" fill="#333" class="union"></circle>
	<circle cx="11.0610133834" cy="-1.9503550935" r="0.38970456249235585" fill="#333" class="union"></circle>
	<circle cx="11.1889075349" cy="-0.9789025665" r="0.38970456249235585" fill="#333" class="union"></circle>
	<circle cx="11.2316473439" cy="0" r="0.38970456249235585" fill="#333" class="union"></circle>
	<circle cx="-10.2573859377" cy="0" r="0.38970456249235585" fill="#a08" class="linke"></circle>
	<circle cx="-10.2109397" cy="-0.9750265219" r="0.38970456249235585" fill="#a08" class="linke"></circle>
	<circle cx="-10.0720216111" cy="-1.9412230526" r="0.38970456249235585" fill="#a08" class="linke"></circle>
	<circle cx="-9.8418897349" cy="-2.8898395667" r="0.38970456249235585" fill="#a08" class="linke"></circle>
	<circle cx="-9.5226281811" cy="-3.8122852463" r="0.38970456249235585" fill="#e02" class="spd"></circle>
	<circle cx="-9.117128232" cy="-4.7002062802" r="0.38970456249235585" fill="#e02" class="spd"></circle>
	<circle cx="-8.6290621577" cy="-5.5455615183" r="0.38970456249235585" fill="#e02" class="spd"></circle>
	<circle cx="-8.0628499603" cy="-6.3406952925" r="0.38970456249235585" fill="#e02" class="spd"></circle>
	<circle cx="-7.4236193451" cy="-7.0784067483" r="0.38970456249235585" fill="#e02" class="spd"></circle>
	<circle cx="-6.7171592835" cy="-7.7520150564" r="0.38970456249235585" fill="#e02" class="spd"></circle>
	<circle cx="-5.9498675873" cy="-8.3554199157" r="0.38970456249235585" fill="#e02" class="spd"></circle>
	<circle cx="-5.1286929688" cy="-8.8831567985" r="0.38970456249235585" fill="#e02" class="spd"></circle>
	<circle cx="-4.2610721127" cy="-9.3304464376" r="0.38970456249235585" fill="#e02" class="spd"></circle>
	<circle cx="-3.3548623276" cy="-9.693238109" r="0.38970456249235585" fill="#e02" class="spd"></circle>
	<circle cx="-2.4182703898" cy="-9.968246315" r="0.38970456249235585" fill="#0b2" class="gruene"></circle>
	<circle cx="-1.4597782208" cy="-10.1529805388" r="0.38970456249235585" fill="#0b2" class="gruene"></circle>
	<circle cx="-0.4880660743" cy="-10.2457677986" r="0.38970456249235585" fill="#0b2" class="gruene"></circle>
	<circle cx="0.4880660743" cy="-10.2457677986" r="0.38970456249235585" fill="#333" class="union"></circle>
	<circle cx="1.4597782208" cy="-10.1529805388" r="0.38970456249235585" fill="#333" class="union"></circle>
	<circle cx="2.4182703898" cy="-9.968246315" r="0.38970456249235585" fill="#333" class="union"></circle>
	<circle cx="3.3548623276" cy="-9.693238109" r="0.38970456249235585" fill="#333" class="union"></circle>
	<circle cx="4.2610721127" cy="-9.3304464376" r="0.38970456249235585" fill="#333" class="union"></circle>
	<circle cx="5.1286929688" cy="-8.8831567985" r="0.38970456249235585" fill="#333" class="union"></circle>
	<circle cx="5.9498675873" cy="-8.3554199157" r="0.38970456249235585" fill="#333" class="union"></circle>
	<circle cx="6.7171592835" cy="-7.7520150564" r="0.38970456249235585" fill="#333" class="union"></circle>
	<circle cx="7.4236193451" cy="-7.0784067483" r="0.38970456249235585" fill="#333" class="union"></circle>
	<circle cx="8.0628499603" cy="-6.3406952925" r="0.38970456249235585" fill="#333" class="union"></circle>
	<circle cx="8.6290621577" cy="-5.5455615183" r="0.38970456249235585" fill="#333" class="union"></circle>
	<circle cx="9.117128232" cy="-4.7002062802" r="0.38970456249235585" fill="#333" class="union"></circle>
	<circle cx="9.5226281811" cy="-3.8122852463" r="0.38970456249235585" fill="#333" class="union"></circle>
	<circle cx="9.8418897349" cy="-2.8898395667" r="0.38970456249235585" fill="#333" class="union"></circle>
	<circle cx="10.0720216111" cy="-1.9412230526" r="0.38970456249235585" fill="#333" class="union"></circle>
	<circle cx="10.2109397" cy="-0.9750265219" r="0.38970456249235585" fill="#333" class="union"></circle>
	<circle cx="10.2573859377" cy="0" r="0.38970456249235585" fill="#333" class="union"></circle>
	<circle cx="-9.2831245315" cy="0" r="0.38970456249235585" fill="#a08" class="linke"></circle>
	<circle cx="-9.232270604" cy="-0.9703507416" r="0.38970456249235585" fill="#a08" class="linke"></circle>
	<circle cx="-9.0802659878" cy="-1.9300701174" r="0.38970456249235585" fill="#a08" class="linke"></circle>
	<circle cx="-8.8287760772" cy="-2.8686432411" r="0.38970456249235585" fill="#e02" class="spd"></circle>
	<circle cx="-8.4805562484" cy="-3.7757869092" r="0.38970456249235585" fill="#e02" class="spd"></circle>
	<circle cx="-8.0394216707" cy="-4.6415622657" r="0.38970456249235585" fill="#e02" class="spd"></circle>
	<circle cx="-7.5102055069" cy="-5.4564836948" r="0.38970456249235585" fill="#e02" class="spd"></circle>
	<circle cx="-6.8987059598" cy="-6.2116227466" r="0.38970456249235585" fill="#e02" class="spd"></circle>
	<circle cx="-6.2116227466" cy="-6.8987059598" r="0.38970456249235585" fill="#e02" class="spd"></circle>
	<circle cx="-5.4564836948" cy="-7.5102055069" r="0.38970456249235585" fill="#e02" class="spd"></circle>
	<circle cx="-4.6415622657" cy="-8.0394216707" r="0.38970456249235585" fill="#e02" class="spd"></circle>
	<circle cx="-3.7757869092" cy="-8.4805562484" r="0.38970456249235585" fill="#e02" class="spd"></circle>
	<circle cx="-2.8686432411" cy="-8.8287760772" r="0.38970456249235585" fill="#e02" class="spd"></circle>
	<circle cx="-1.9300701174" cy="-9.0802659878" r="0.38970456249235585" fill="#0b2" class="gruene"></circle>
	<circle cx="-0.9703507416" cy="-9.232270604" r="0.38970456249235585" fill="#0b2" class="gruene"></circle>
	<circle cx="0" cy="-9.2831245315" r="0.38970456249235585" fill="#0b2" class="gruene"></circle>
	<circle cx="0.9703507416" cy="-9.232270604" r="0.38970456249235585" fill="#333" class="union"></circle>
	<circle cx="1.9300701174" cy="-9.0802659878" r="0.38970456249235585" fill="#333" class="union"></circle>
	<circle cx="2.8686432411" cy="-8.8287760772" r="0.38970456249235585" fill="#333" class="union"></circle>
	<circle cx="3.7757869092" cy="-8.4805562484" r="0.38970456249235585" fill="#333" class="union"></circle>
	<circle cx="4.6415622657" cy="-8.0394216707" r="0.38970456249235585" fill="#333" class="union"></circle>
	<circle cx="5.4564836948" cy="-7.5102055069" r="0.38970456249235585" fill="#333" class="union"></circle>
	<circle cx="6.2116227466" cy="-6.8987059598" r="0.38970456249235585" fill="#333" class="union"></circle>
	<circle cx="6.8987059598" cy="-6.2116227466" r="0.38970456249235585" fill="#333" class="union"></circle>
	<circle cx="7.5102055069" cy="-5.4564836948" r="0.38970456249235585" fill="#333" class="union"></circle>
	<circle cx="8.0394216707" cy="-4.6415622657" r="0.38970456249235585" fill="#333" class="union"></circle>
	<circle cx="8.4805562484" cy="-3.7757869092" r="0.38970456249235585" fill="#333" class="union"></circle>
	<circle cx="8.8287760772" cy="-2.8686432411" r="0.38970456249235585" fill="#333" class="union"></circle>
	<circle cx="9.0802659878" cy="-1.9300701174" r="0.38970456249235585" fill="#333" class="union"></circle>
	<circle cx="9.232270604" cy="-0.9703507416" r="0.38970456249235585" fill="#333" class="union"></circle>
	<circle cx="9.2831245315" cy="0" r="0.38970456249235585" fill="#333" class="union"></circle>
	<circle cx="-8.3088631252" cy="0" r="0.38970456249235585" fill="#a08" class="linke"></circle>
	<circle cx="-8.2482821581" cy="-1.0015227778" r="0.38970456249235585" fill="#a08" class="linke"></circle>
	<circle cx="-8.0674226636" cy="-1.9884410983" r="0.38970456249235585" fill="#a08" class="linke"></circle>
	<circle cx="-7.7689219803" cy="-2.94636347" r="0.38970456249235585" fill="#e02" class="spd"></circle>
	<circle cx="-7.3571329206" cy="-3.8613212276" r="0.38970456249235585" fill="#e02" class="spd"></circle>
	<circle cx="-6.838060296" cy="-4.7199722269" r="0.38970456249235585" fill="#e02" class="spd"></circle>
	<circle cx="-6.2192733543" cy="-5.5097954026" r="0.38970456249235585" fill="#e02" class="spd"></circle>
	<circle cx="-5.5097954026" cy="-6.2192733543" r="0.38970456249235585" fill="#e02" class="spd"></circle>
	<circle cx="-4.7199722269" cy="-6.838060296" r="0.38970456249235585" fill="#e02" class="spd"></circle>
	<circle cx="-3.8613212276" cy="-7.3571329206" r="0.38970456249235585" fill="#e02" class="spd"></circle>
	<circle cx="-2.94636347" cy="-7.7689219803" r="0.38970456249235585" fill="#e02" class="spd"></circle>
	<circle cx="-1.9884410983" cy="-8.0674226636" r="0.38970456249235585" fill="#0b2" class="gruene"></circle>
	<circle cx="-1.0015227778" cy="-8.2482821581" r="0.38970456249235585" fill="#0b2" class="gruene"></circle>
	<circle cx="0" cy="-8.3088631252" r="0.38970456249235585" fill="#0b2" class="gruene"></circle>
	<circle cx="1.0015227778" cy="-8.2482821581" r="0.38970456249235585" fill="#333" class="union"></circle>
	<circle cx="1.9884410983" cy="-8.0674226636" r="0.38970456249235585" fill="#333" class="union"></circle>
	<circle cx="2.94636347" cy="-7.7689219803" r="0.38970456249235585" fill="#333" class="union"></circle>
	<circle cx="3.8613212276" cy="-7.3571329206" r="0.38970456249235585" fill="#333" class="union"></circle>
	<circle cx="4.7199722269" cy="-6.838060296" r="0.38970456249235585" fill="#333" class="union"></circle>
	<circle cx="5.5097954026" cy="-6.2192733543" r="0.38970456249235585" fill="#333" class="union"></circle>
	<circle cx="6.2192733543" cy="-5.5097954026" r="0.38970456249235585" fill="#333" class="union"></circle>
	<circle cx="6.838060296" cy="-4.7199722269" r="0.38970456249235585" fill="#333" class="union"></circle>
	<circle cx="7.3571329206" cy="-3.8613212276" r="0.38970456249235585" fill="#333" class="union"></circle>
	<circle cx="7.7689219803" cy="-2.94636347" r="0.38970456249235585" fill="#333" class="union"></circle>
	<circle cx="8.0674226636" cy="-1.9884410983" r="0.38970456249235585" fill="#333" class="union"></circle>
	<circle cx="8.2482821581" cy="-1.0015227778" r="0.38970456249235585" fill="#333" class="union"></circle>
	<circle cx="8.3088631252" cy="0" r="0.38970456249235585" fill="#333" class="union"></circle>
	<circle cx="-7.334601719" cy="0" r="0.38970456249235585" fill="#a08" class="linke"></circle>
	<circle cx="-7.2662868428" cy="-0.9987281385" r="0.38970456249235585" fill="#a08" class="linke"></circle>
	<circle cx="-7.062614791" cy="-1.9788518615" r="0.38970456249235585" fill="#a08" class="linke"></circle>
	<circle cx="-6.7273795887" cy="-2.9221133184" r="0.38970456249235585" fill="#e02" class="spd"></circle>
	<circle cx="-6.2668260333" cy="-3.8109413331" r="0.38970456249235585" fill="#e02" class="spd"></circle>
	<circle cx="-5.6895333662" cy="-4.6287787213" r="0.38970456249235585" fill="#e02" class="spd"></circle>
	<circle cx="-5.0062554576" cy="-5.3603907199" r="0.38970456249235585" fill="#e02" class="spd"></circle>
	<circle cx="-4.2297204819" cy="-5.9921487816" r="0.38970456249235585" fill="#e02" class="spd"></circle>
	<circle cx="-3.3743938166" cy="-6.5122844492" r="0.38970456249235585" fill="#e02" class="spd"></circle>
	<circle cx="-2.4562085791" cy="-6.9111085791" r="0.38970456249235585" fill="#e02" class="spd"></circle>
	<circle cx="-1.4922688231" cy="-7.1811918326" r="0.38970456249235585" fill="#0b2" class="gruene"></circle>
	<circle cx="-0.5005309224" cy="-7.3175030695" r="0.38970456249235585" fill="#0b2" class="gruene"></circle>
	<circle cx="0.5005309224" cy="-7.3175030695" r="0.38970456249235585" fill="#333" class="union"></circle>
	<circle cx="1.4922688231" cy="-7.1811918326" r="0.38970456249235585" fill="#333" class="union"></circle>
	<circle cx="2.4562085791" cy="-6.9111085791" r="0.38970456249235585" fill="#333" class="union"></circle>
	<circle cx="3.3743938166" cy="-6.5122844492" r="0.38970456249235585" fill="#333" class="union"></circle>
	<circle cx="4.2297204819" cy="-5.9921487816" r="0.38970456249235585" fill="#333" class="union"></circle>
	<circle cx="5.0062554576" cy="-5.3603907199" r="0.38970456249235585" fill="#333" class="union"></circle>
	<circle cx="5.6895333662" cy="-4.6287787213" r="0.38970456249235585" fill="#333" class="union"></circle>
	<circle cx="6.2668260333" cy="-3.8109413331" r="0.38970456249235585" fill="#333" class="union"></circle>
	<circle cx="6.7273795887" cy="-2.9221133184" r="0.38970456249235585" fill="#333" class="union"></circle>
	<circle cx="7.062614791" cy="-1.9788518615" r="0.38970456249235585" fill="#333" class="union"></circle>
	<circle cx="7.2662868428" cy="-0.9987281385" r="0.38970456249235585" fill="#333" class="union"></circle>
	<circle cx="7.334601719" cy="0" r="0.38970456249235585" fill="#333" class="union"></circle>
</svg>
